<svg width="223" height="212" viewBox="0 0 223 212" fill="none" xmlns="http://www.w3.org/2000/svg">
<path d="M192.77 104.535L191.919 104.04C192.715 102.658 190.58 96.7738 188.818 93.8107C187.595 91.7551 186.828 89.8862 186.473 88.0972C185.907 85.2489 186.444 82.7794 188.07 80.7571C191.442 76.5619 191.413 68.5535 191.412 68.4731L192.395 68.4643C192.398 68.8068 192.429 76.9053 188.834 81.378C186.445 84.351 186.723 88.3635 189.661 93.3039C191.046 95.6319 194.004 102.391 192.77 104.535Z" fill="#D4D5E0"/>
<path d="M203.537 59.9515C203.76 51.928 198.51 45.2711 191.811 45.083C185.112 44.8949 179.501 51.2467 179.278 59.2703C179.061 67.0606 184.004 73.562 190.423 74.1056C190.309 74.9178 189.963 75.6795 189.429 76.2992C188.455 77.2982 192.489 76.3852 192.489 76.3852C192.224 75.6565 192.077 74.8894 192.055 74.1135C198.28 73.6504 203.325 67.5514 203.537 59.9515Z" fill="#CD15F3"/>
<path opacity="0.2" d="M182.811 65.3083C181.819 62.255 182.733 59.1893 184.852 58.2688C184.754 58.2911 184.657 58.3177 184.56 58.3495C182.241 59.1108 181.2 62.311 182.235 65.4972C183.24 68.5909 185.833 70.5337 188.106 69.9472C188.152 70.1896 183.814 68.3968 182.811 65.3083Z" fill="white"/>
<path d="M37.9255 204.085L36.9434 204.127C36.8765 202.532 31.9333 198.718 28.8641 197.169C26.7348 196.094 25.0898 194.931 23.8348 193.613C21.8367 191.515 20.9714 189.141 21.2631 186.558C21.8682 181.199 17.5674 174.457 17.5239 174.39L18.3485 173.852C18.534 174.14 22.8848 180.956 22.2397 186.669C21.8109 190.467 24.1881 193.702 29.3053 196.286C31.7167 197.503 37.8216 201.611 37.9255 204.085Z" fill="#D4D5E0"/>
<path d="M23.2044 160.659C19.1083 153.769 11.1243 150.983 5.37143 154.438C-0.381388 157.893 -1.72447 166.28 2.37157 173.17C6.34857 179.86 13.9907 182.68 19.6972 179.676C20.0343 180.423 20.1496 181.252 20.0294 182.063C19.7416 183.431 22.6579 180.485 22.6579 180.485C22.0446 180.013 21.5111 179.445 21.078 178.802C26.0832 175.054 27.0841 167.186 23.2044 160.659Z" fill="#CD15F3"/>
<path opacity="0.2" d="M8.57606 176.359C6.10864 174.318 5.24357 171.238 6.54011 169.318C6.46936 169.39 6.40126 169.465 6.33657 169.544C4.78599 171.438 5.61635 174.699 8.1912 176.829C10.6912 178.898 13.9165 179.138 15.5211 177.417C15.6895 177.597 11.0719 178.424 8.57606 176.359Z" fill="white"/>
<path d="M70.28 100.389L69.2979 100.431C69.231 98.8354 64.2877 95.022 61.2186 93.4725C59.0893 92.3975 57.4443 91.2343 56.1893 89.9165C54.1912 87.8183 53.3259 85.4446 53.6176 82.8615C54.2227 77.5027 49.9219 70.7611 49.8784 70.6937L50.703 70.156C50.8885 70.4434 55.2393 77.2597 54.5942 82.973C54.1654 86.7706 56.5426 90.0061 61.6598 92.5898C64.0712 93.8072 70.1761 97.9149 70.28 100.389Z" fill="#D4D5E0"/>
<path d="M55.5589 56.9627C51.4628 50.0723 43.4787 47.2872 37.7259 50.7421C31.9731 54.197 30.63 62.5835 34.7261 69.4739C38.7031 76.1641 46.3452 78.9835 52.0517 75.9795C52.3888 76.7265 52.5041 77.5556 52.3838 78.3669C52.0961 79.7348 55.0124 76.7883 55.0124 76.7883C54.3991 76.3168 53.8655 75.7487 53.4325 75.1061C58.4377 71.3573 59.4386 63.4893 55.5589 56.9627Z" fill="#CD15F3"/>
<path opacity="0.2" d="M40.9306 72.6631C38.4631 70.622 37.5981 67.5417 38.8946 65.6219C38.8238 65.6936 38.7558 65.7687 38.6911 65.8477C37.1405 67.7413 37.9708 71.0031 40.5457 73.1331C43.0457 75.2012 46.271 75.4419 47.8756 73.7209C48.044 73.9005 43.4264 74.7278 40.9306 72.6631Z" fill="white"/>
<path d="M39.925 138.131L38.943 138.172C38.876 136.577 33.9328 132.763 30.8637 131.214C28.7344 130.139 27.0893 128.976 25.8343 127.658C23.8362 125.56 22.9709 123.186 23.2626 120.603C23.8677 115.244 19.5669 108.502 19.5234 108.435L20.348 107.897C20.5335 108.185 24.8843 115.001 24.2392 120.714C23.8104 124.512 26.1876 127.747 31.3048 130.331C33.7163 131.549 39.8212 135.656 39.925 138.131Z" fill="#D4D5E0"/>
<path d="M25.2044 94.7041C21.1083 87.8137 13.1243 85.0286 7.37144 88.4835C1.61861 91.9384 0.275534 100.325 4.37157 107.215C8.34857 113.905 15.9907 116.725 21.6972 113.721C22.0343 114.468 22.1496 115.297 22.0294 116.108C21.7416 117.476 24.6579 114.53 24.6579 114.53C24.0446 114.058 23.5111 113.49 23.078 112.848C28.0832 109.099 29.0841 101.231 25.2044 94.7041Z" fill="#CD15F3"/>
<path opacity="0.2" d="M10.5761 110.405C8.10864 108.363 7.24357 105.283 8.54011 103.363C8.46936 103.435 8.40126 103.51 8.33657 103.589C6.78599 105.483 7.61635 108.744 10.1912 110.875C12.6912 112.943 15.9165 113.183 17.5211 111.462C17.6895 111.642 13.0719 112.469 10.5761 110.405Z" fill="white"/>
<path d="M195.895 162.848L195.271 162.085C196.499 161.071 196.557 154.808 195.943 151.412C195.517 149.056 195.452 147.035 195.745 145.235C196.211 142.368 197.577 140.246 199.806 138.926C204.429 136.189 207.201 128.681 207.229 128.606L208.152 128.945C208.035 129.266 205.234 136.86 200.304 139.778C197.028 141.717 195.886 145.572 196.91 151.235C197.392 153.904 197.799 161.277 195.895 162.848Z" fill="#D4D5E0"/>
<path d="M221.559 124.909C224.573 117.476 221.985 109.39 215.779 106.848C209.572 104.306 202.099 108.271 199.085 115.705C196.159 122.922 198.514 130.754 204.334 133.53C203.943 134.25 203.353 134.841 202.636 135.233C201.376 135.824 205.472 136.394 205.472 136.394C205.478 135.618 205.608 134.848 205.859 134.114C211.849 135.878 218.705 131.95 221.559 124.909Z" fill="#CD15F3"/>
<path opacity="0.2" d="M200.282 122.605C200.42 119.396 202.348 116.849 204.654 116.736C204.555 116.722 204.454 116.712 204.352 116.708C201.915 116.602 199.821 119.23 199.677 122.579C199.537 125.83 201.285 128.565 203.618 128.818C203.576 129.062 200.142 125.851 200.282 122.605Z" fill="white"/>
<path opacity="0.1" d="M115.083 211.789C166.068 211.789 207.399 208.702 207.399 204.893C207.399 201.085 166.068 197.998 115.083 197.998C64.099 197.998 22.7681 201.085 22.7681 204.893C22.7681 208.702 64.099 211.789 115.083 211.789Z" fill="#CD15F3"/>
<path d="M107.307 25.2522V36.0909H108.438V24.7278L107.307 25.2522Z" fill="#53425A"/>
<path d="M130.439 28.1367V38.1888H132.005L131.657 27.0003L130.439 28.1367Z" fill="#53425A"/>
<path d="M85.9142 30.0596L84.8706 31.196V40.9858H85.9142V30.0596Z" fill="#53425A"/>
<path d="M90.2621 58.9037H83.479V39.3259H88.6968C88.6428 39.4766 88.6026 39.632 88.5768 39.79C88.3733 40.915 88.4359 43.0364 88.6264 45.4672C89.0803 51.2939 90.2621 58.9037 90.2621 58.9037Z" fill="#CD15F3"/>
<path d="M113.917 58.9037L105.394 59.9526V34.4302H110.787C110.75 34.7186 110.727 35.0464 110.714 35.4109C110.698 37.3367 110.81 39.2613 111.05 41.172C111.233 42.8345 111.473 44.6203 111.736 46.3955C111.94 47.7722 112.159 49.141 112.375 50.4443C113.158 55.1198 113.917 58.9037 113.917 58.9037Z" fill="#CD15F3"/>
<path d="M136.876 56.2814L128.527 56.9816V36.528H134.267C134.063 36.9632 133.975 37.6975 133.972 38.631C134.009 40.3183 134.159 42.0013 134.421 43.6684C135.235 49.398 136.876 56.2814 136.876 56.2814Z" fill="#CD15F3"/>
<path d="M87.3054 10.218C87.3054 10.218 87.8272 12.3158 82.3485 18.0847C76.8698 23.8537 79.0439 35.479 84.8705 35.1294C84.8705 35.1294 90.3175 36.0325 92.2769 32.3053C92.6845 31.5009 92.8674 30.6005 92.8061 29.7C92.7449 28.7994 92.4419 27.9324 91.9292 27.1912C90.1287 24.5261 86.656 18.9253 87.3054 16.2491V10.218Z" fill="#FFC13D"/>
<path opacity="0.5" d="M86.2043 18.1461C86.2043 18.1461 86.5302 19.4563 83.1082 23.0596C79.6862 26.6629 81.0441 33.9241 84.6834 33.7057C84.6834 33.7057 88.1616 34.2824 89.3494 31.8631C89.5831 31.3658 89.6821 30.8153 89.6363 30.2672C89.5904 29.7191 89.4014 29.1929 89.0884 28.7418C88.0256 27.1681 86.0376 23.9672 86.1598 22.2094C86.1789 21.9346 86.2043 21.6603 86.2043 21.3849V18.1461Z" fill="white"/>
<path d="M132.522 7.58691C132.522 7.58691 133.044 9.68472 127.565 15.4537C122.086 21.2226 124.26 32.848 130.087 32.4983C130.087 32.4983 135.534 33.4014 137.493 29.6742C137.901 28.8699 138.084 27.9695 138.022 27.0689C137.961 26.1683 137.658 25.3013 137.146 24.5602C135.345 21.8951 131.872 16.2943 132.522 13.6181V7.58691Z" fill="#FFC13D"/>
<path opacity="0.5" d="M131.83 20.0908C131.83 20.0908 132.074 21.0726 129.51 23.7725C126.946 26.4725 127.964 31.9133 130.691 31.7497C130.691 31.7497 133.24 32.1723 134.157 30.4279C134.348 30.0515 134.433 29.6301 134.405 29.2086C134.376 28.7871 134.234 28.3814 133.994 28.0345C133.152 26.7872 131.526 24.1659 131.83 22.9134V20.0908Z" fill="white"/>
<path d="M109.453 0C109.453 0 110.087 2.55093 103.425 9.56601C96.7629 16.5811 99.4066 30.7175 106.492 30.2924C106.492 30.2924 113.115 31.3905 115.498 26.8582C115.994 25.8801 116.216 24.7852 116.142 23.6902C116.067 22.5951 115.699 21.5408 115.075 20.6395C112.886 17.3988 108.663 10.5882 109.453 7.33394V0Z" fill="#FFC13D"/>
<path opacity="0.5" d="M108.754 12.6617C108.754 12.6617 109.108 14.085 105.391 17.9988C101.674 21.9127 103.149 29.7997 107.102 29.5625C107.102 29.5625 110.798 30.1752 112.127 27.6465C112.404 27.1008 112.528 26.49 112.486 25.879C112.445 25.268 112.239 24.6798 111.891 24.177C110.67 22.3689 108.314 18.5691 108.754 16.7535V12.6617Z" fill="white"/>
<path opacity="0.5" d="M88.6263 45.4672C87.0323 47.1533 84.8304 50.1715 83.479 52.0832V45.1657C84.9687 43.3615 87.1028 41.2192 88.5768 39.79C88.3733 40.915 88.4359 43.0364 88.6263 45.4672Z" fill="white"/>
<path opacity="0.5" d="M111.05 41.172C109.059 42.7747 107.17 44.5018 105.394 46.3431V39.7297C107 38.0939 108.785 36.6452 110.714 35.4109C110.698 37.3366 110.81 39.2613 111.05 41.172Z" fill="white"/>
<path d="M112.375 50.4443C110.28 52.2903 107.398 54.9152 105.394 56.7455V52.0124C107.486 50.0771 110.046 47.8482 111.736 46.3955C111.94 47.7722 112.159 49.141 112.375 50.4443Z" fill="#CD15F3"/>
<path opacity="0.5" d="M134.421 43.6683C132.409 45.3623 130.077 47.6909 128.527 49.2931V42.6981C130.174 41.0513 132.357 39.596 133.972 38.631C134.009 40.3183 134.159 42.0013 134.421 43.6683Z" fill="white"/>
<path d="M153.92 63.6237H68.7832V102.784H153.92V63.6237Z" fill="#C99398"/>
<path opacity="0.1" d="M153.92 63.6237V69.5185C152.292 69.8358 150.158 69.3455 148.37 68.745C147.315 68.3866 146.193 68.2732 145.088 68.413C143.982 68.5529 142.923 68.9425 141.989 69.5526C137.084 72.7754 133.254 72.0936 130.583 70.4914C129.26 69.6798 127.765 69.1942 126.22 69.0744C124.674 68.9545 123.123 69.2038 121.692 69.8018C120.443 70.3184 119.1 70.5658 117.75 70.5281C116.171 70.5067 114.62 70.9369 113.275 71.7684C109.247 74.2202 105.232 72.8016 102.709 71.32C101.056 70.3625 99.1011 70.0791 97.2464 70.5281C96.4528 70.7206 95.6342 70.7879 94.8201 70.7274C92.9575 70.552 91.0864 70.9576 89.4614 71.8891C82.8113 75.7936 80.6146 71.0526 79.3049 70.355C77.8257 69.5684 77.6535 72.2772 77.2178 72.2772C76.7821 72.2772 75.3055 68.6952 74.9559 69.9171C74.7941 70.4914 73.4245 71.181 72.0157 71.7527C70.9911 72.1683 69.8706 72.2847 68.7832 72.0884V63.6237H153.92Z" fill="black"/>
<path d="M72.1756 55.8164C72.1756 55.8164 58.2224 62.0751 65.6681 69.8955C66.4737 70.7281 67.5085 71.2997 68.6396 71.5371C69.7707 71.7745 70.9466 71.6668 72.0164 71.2278C73.4242 70.6574 74.7937 69.9678 74.957 69.3935C75.3048 68.1698 76.7832 71.7536 77.218 71.7536C77.6528 71.7536 77.8267 69.0439 79.3051 69.8306C80.6146 70.5274 82.8111 75.2704 89.4603 71.3638C91.0865 70.4332 92.9583 70.0279 94.8215 70.2029C95.635 70.2641 96.4531 70.1967 97.2459 70.0033C99.1009 69.5547 101.056 69.8379 102.71 70.7947C105.233 72.2765 109.248 73.6949 113.275 71.2451C114.62 70.4126 116.172 69.9818 117.751 70.003C119.101 70.0418 120.443 69.7941 121.691 69.2761C123.123 68.679 124.674 68.4303 126.22 68.5502C127.765 68.6701 129.26 69.1552 130.584 69.966C133.255 71.5702 137.086 72.2509 141.989 69.0289C142.923 68.4181 143.982 68.0279 145.087 67.8877C146.192 67.7474 147.314 67.8608 148.369 68.2192C151.936 69.4201 156.891 70.1857 156.442 64.9357C155.746 56.8067 146.18 54.4467 142.18 54.3593C138.179 54.2719 131.57 53.5726 124.091 54.3593C116.612 55.146 101.394 55.0586 101.394 55.0586C101.394 55.0586 75.8397 54.0387 72.1756 55.8164Z" fill="#F8F8FA"/>
<path d="M172.834 102.784H51.3896V150.727H172.834V102.784Z" fill="#C99398"/>
<path opacity="0.1" d="M153.92 94.6057V102.784H106.576C106.495 102.774 106.414 102.766 106.333 102.761C105.932 102.731 105.53 102.739 105.13 102.784H68.7832V95.492C72.7435 95.9771 76.7377 96.5934 80.6746 96.5776C85.9002 96.554 91.0632 95.4632 96.2993 95.7569C114.606 96.7795 133.247 97.0837 151.48 94.9046C152.292 94.8076 153.106 94.7053 153.92 94.6057Z" fill="black"/>
<path opacity="0.1" d="M172.834 102.784V107.109C171.514 106.941 170.243 106.411 168.968 105.992C167.817 105.614 166.573 105.32 165.404 105.632C164.788 105.797 164.227 106.123 163.619 106.311C161.078 107.109 158.428 105.449 155.764 105.438C153.124 105.428 150.763 107.027 148.185 107.609C144.201 108.509 140.129 106.93 136.312 105.467C134.768 104.877 132.978 104.313 131.535 105.121C130.901 105.475 130.424 106.057 129.805 106.44C127.997 107.562 125.631 106.686 123.828 105.554C122.688 104.838 121.308 103.996 120.106 104.599C119.485 104.908 119.096 105.535 118.582 105.999C116.954 107.465 114.392 107.072 112.396 106.18C110.403 105.289 108.509 103.972 106.333 103.81C103.265 103.576 100.578 105.656 97.9012 107.179C95.2245 108.703 91.512 109.605 89.3283 107.423C88.6057 106.702 88.0708 105.658 87.0821 105.409C85.4463 105 84.2175 107.035 82.5687 107.392C80.5363 107.832 78.8823 105.658 76.8447 105.231C74.7367 104.788 72.7748 106.262 70.9147 107.35C69.0546 108.438 66.3517 109.052 65.0029 107.366C64.5724 106.828 64.3376 106.104 63.748 105.748C63.2984 105.526 62.7933 105.445 62.2975 105.514C60.5325 105.613 58.7996 106.029 57.1814 106.744C55.3239 107.567 53.5263 108.803 51.4992 108.763C51.4627 108.763 51.4262 108.761 51.3896 108.758V102.784H172.834Z" fill="black"/>
<path d="M80.6737 97.1019C71.358 97.1415 61.7362 93.6309 52.9535 96.753C49.7667 97.8858 46.5348 100.566 46.8708 103.947C47.0191 105.094 47.5637 106.153 48.4097 106.937C49.2556 107.722 50.349 108.183 51.4987 108.239C53.5272 108.279 55.3243 107.042 57.1809 106.22C58.7994 105.504 60.533 105.087 62.2986 104.989C62.7947 104.921 63.2996 105.003 63.7494 105.224C64.3379 105.579 64.5735 106.305 65.0037 106.842C66.3531 108.528 69.054 107.914 70.9146 106.826C72.7752 105.737 74.738 104.263 76.8453 104.706C78.8812 105.133 80.5355 107.308 82.5686 106.867C84.2168 106.51 85.4455 104.477 87.0816 104.886C88.0719 105.134 88.6055 106.177 89.3292 106.9C91.5109 109.08 95.2239 108.179 97.9008 106.655C100.578 105.131 103.264 103.053 106.332 103.284C108.51 103.448 110.402 104.765 112.397 105.656C114.393 106.547 116.955 106.94 118.581 105.476C119.097 105.011 119.486 104.383 120.106 104.073C121.308 103.472 122.689 104.314 123.828 105.029C125.631 106.162 127.998 107.038 129.807 105.915C130.423 105.532 130.902 104.95 131.535 104.596C132.978 103.788 134.769 104.352 136.312 104.944C140.128 106.406 144.202 107.985 148.187 107.085C150.762 106.502 153.125 104.904 155.765 104.914C158.427 104.924 161.078 106.584 163.62 105.788C164.227 105.598 164.788 105.273 165.403 105.109C166.574 104.795 167.816 105.089 168.968 105.467C170.496 105.97 172.017 106.631 173.625 106.635C175.233 106.64 176.991 105.758 177.376 104.189C177.67 102.988 177.097 101.743 176.381 100.737C173.782 97.0828 169.276 95.2023 164.834 94.7025C160.393 94.2026 155.918 94.9001 151.48 95.4301C133.246 97.6077 114.605 97.3045 96.2998 96.2813C91.0639 95.9886 85.9002 97.0797 80.6737 97.1019Z" fill="#F8F8FA"/>
<path d="M177.455 146.4H43.1719V201.992H177.455V146.4Z" fill="#C99398"/>
<path opacity="0.1" d="M178.05 144.877C171.333 146.334 164.529 147.35 157.682 147.919C155.383 147.516 153.021 147.697 150.81 148.446C150.768 148.459 150.726 148.472 150.685 148.488C146.453 149.993 142.811 153.562 138.324 153.504C134.742 153.457 131.645 151.079 128.204 150.082C127.22 149.797 126.206 149.631 125.183 149.587C124.487 149.551 123.79 149.57 123.098 149.644C118.937 149.754 114.776 149.799 110.615 149.712C104.51 149.589 98.418 149.183 92.3262 148.779C85.8144 148.346 79.3026 147.914 72.7907 147.481C66.665 147.074 60.5384 146.668 54.411 146.262C52.9083 146.162 51.4038 146.061 49.8976 145.96C48.2775 145.852 47.0748 146.204 46.4199 144.748C45.6425 143.007 46.3286 141.274 47.2809 139.758C48.1001 139.774 48.9218 139.832 49.7384 139.889C62.1464 140.768 74.5517 141.677 86.9545 142.617L85.0473 142.955C98.002 140.904 111.12 140.089 124.228 140.519C130.346 140.721 136.498 141.193 142.571 140.409C146.839 139.858 151.021 138.694 155.31 138.329C161.201 137.828 167.105 138.851 172.933 139.871C174.16 140.066 175.376 140.325 176.576 140.647C176.886 142.147 177.233 143.645 178.05 144.877Z" fill="black"/>
<path opacity="0.1" d="M177.454 146.4V151.627C175.779 151.378 174.138 151.131 173.121 152.327C172.643 152.891 172.458 153.656 171.994 154.233C171.036 155.421 169.166 155.418 167.799 154.744C166.434 154.071 165.393 152.891 164.217 151.92C162.344 150.408 160.121 149.397 157.755 148.98C155.389 148.563 152.957 148.755 150.684 149.537C146.453 151.042 142.811 154.611 138.323 154.553C134.741 154.506 131.644 152.127 128.203 151.131C126.256 150.581 124.212 150.473 122.218 150.814C120.223 151.154 118.329 151.935 116.672 153.1C114.235 154.839 111.934 157.537 108.968 157.194C107.413 157.013 106.106 155.995 104.786 155.148C102.129 153.45 99.1438 152.339 96.0278 151.886C94.6685 151.692 93.2258 151.634 91.9735 152.201C90.3951 152.917 89.375 154.498 87.9088 155.426C84.5042 157.579 80.09 155.636 76.581 153.661C73.0694 151.687 68.7256 149.665 65.2479 151.695C64.4287 152.172 63.7269 152.854 62.8608 153.237C57.9691 155.395 53.1661 147.08 48.1466 148.918C47.0143 149.332 46.1116 150.226 44.9976 150.688C44.4194 150.924 43.7919 151.012 43.1714 150.945V146.4H177.454Z" fill="black"/>
<path d="M86.9555 143.14C74.552 142.202 62.1464 141.293 49.7385 140.414C47.5841 140.262 45.3744 140.116 43.304 140.734C41.2336 141.352 39.2989 142.906 38.856 145.031C38.1865 148.243 41.9789 151.411 44.9985 150.162C46.113 149.702 47.0151 148.806 48.1475 148.392C53.1662 146.556 57.9699 154.87 62.8599 152.711C63.7269 152.328 64.428 151.649 65.2469 151.171C68.7258 149.141 73.0696 151.164 76.5799 153.138C80.0903 155.113 84.5042 157.054 87.9095 154.901C89.3761 153.974 90.3944 152.393 91.9739 151.677C93.2266 151.11 94.6675 151.167 96.0277 151.363C99.1444 151.814 102.13 152.926 104.787 154.625C106.106 155.471 107.414 156.487 108.968 156.668C111.935 157.014 114.237 154.313 116.672 152.576C118.329 151.411 120.223 150.63 122.218 150.289C124.212 149.949 126.256 150.057 128.203 150.605C131.644 151.603 134.742 153.982 138.322 154.028C142.81 154.087 146.453 150.518 150.683 149.012C152.956 148.23 155.389 148.039 157.755 148.456C160.121 148.873 162.344 149.884 164.217 151.396C165.394 152.367 166.433 153.545 167.8 154.22C169.166 154.894 171.036 154.897 171.995 153.708C172.459 153.133 172.643 152.366 173.122 151.802C175.08 149.501 179.346 152.543 181.721 150.678C182.27 150.215 182.653 149.583 182.808 148.879C183.403 146.494 181.912 143.98 179.871 142.625C177.829 141.271 175.342 140.819 172.932 140.396C167.106 139.376 161.202 138.352 155.31 138.853C151.021 139.217 146.839 140.384 142.57 140.934C136.498 141.717 130.346 141.246 124.227 141.044C111.12 140.613 98.0012 141.429 85.0463 143.479" fill="#F8F8FA"/>
<path opacity="0.1" d="M177.455 186.857V199.918C172.315 200.183 167.175 200.446 162.034 200.707C153.732 201.132 145.423 201.557 137.113 201.394C130.09 201.255 123.083 200.7 116.062 200.479C101.301 200.018 86.4979 201.054 71.7785 199.866C67.0668 199.485 62.3708 198.88 57.6513 198.61C52.8258 198.341 47.9876 198.411 43.1719 198.819V186.513C43.6153 186.476 44.0604 186.466 44.505 186.482C46.8336 186.559 49.1217 187.115 51.2282 188.115C52.8744 188.899 54.4345 189.964 56.2294 190.276C60.8994 191.086 64.9562 186.652 69.6835 186.298C73.4899 186.015 76.9102 188.388 80.1766 190.373C80.8053 190.753 81.5045 191.136 82.2272 191.029C82.8324 190.939 83.3307 190.523 83.8238 190.158C88.4833 186.702 95.5821 187.121 99.8033 191.105C100.263 191.535 100.719 192.02 101.324 192.18C102.522 192.5 103.597 191.456 104.546 190.654C109.691 186.293 117.62 187.604 123.523 190.856C124.617 191.456 125.827 192.14 127.035 191.826C127.844 191.616 128.467 190.992 129.114 190.46C134.142 186.314 141.702 187.085 147.585 189.872C148.154 190.142 148.754 190.433 149.378 190.363C150.126 190.273 150.7 189.694 151.277 189.209C152.686 188.059 154.389 187.331 156.19 187.106C157.991 186.882 159.819 187.171 161.465 187.94C162.394 188.388 163.254 188.994 164.241 189.298C167.05 190.161 169.905 188.406 172.709 187.517C174.244 187.035 175.847 186.812 177.455 186.857Z" fill="black"/>
<path d="M191.605 199.719C181.749 200.225 171.892 200.729 162.034 201.232C153.732 201.657 145.423 202.081 137.113 201.919C130.09 201.78 123.083 201.224 116.062 201.004C101.301 200.542 86.4979 201.578 71.7785 200.39C67.0668 200.01 62.3708 199.404 57.6513 199.134C52.3404 198.841 47.0152 198.955 41.7213 199.472C40.5891 199.58 38.8463 200.149 37.7506 199.926C36.5688 199.685 37.0201 199.548 37.4062 198.423C37.5216 198.089 37.6191 197.748 37.6984 197.403C38.0219 196.027 38.0819 194.637 38.215 193.208C38.3872 191.383 38.6533 189.374 40.156 188.134C41.3378 187.156 42.9736 186.956 44.505 187.006C46.8336 187.083 49.1218 187.639 51.2282 188.64C52.8744 189.424 54.4345 190.488 56.2294 190.801C60.8994 191.611 64.9562 187.177 69.6836 186.823C73.49 186.539 76.9102 188.913 80.1766 190.898C80.8053 191.278 81.5045 191.661 82.2272 191.553C82.8324 191.464 83.3307 191.047 83.8238 190.683C88.4833 187.226 95.5821 187.646 99.8033 191.629C100.263 192.059 100.719 192.544 101.324 192.704C102.522 193.024 103.597 191.981 104.546 191.178C109.691 186.817 117.62 188.128 123.523 191.38C124.617 191.981 125.827 192.665 127.035 192.35C127.844 192.141 128.467 191.516 129.114 190.984C134.142 186.838 141.702 187.609 147.585 190.397C148.154 190.667 148.754 190.958 149.378 190.887C150.126 190.798 150.7 190.218 151.277 189.733C152.686 188.584 154.389 187.855 156.19 187.631C157.991 187.406 159.819 187.695 161.465 188.464C162.394 188.913 163.254 189.518 164.241 189.822C167.05 190.685 169.905 188.931 172.709 188.042C176.373 186.879 180.345 187.208 183.771 188.959C187.196 190.71 189.8 193.742 191.024 197.403C191.283 198.157 191.477 198.932 191.605 199.719Z" fill="#F8F8FA"/>
<path opacity="0.1" d="M191.605 199.719C181.749 200.225 171.892 200.729 162.034 201.232C153.732 201.657 145.423 202.081 137.113 201.919C130.09 201.78 123.083 201.224 116.062 201.004C101.301 200.542 86.4979 201.578 71.7785 200.39C67.0668 200.01 62.3708 199.404 57.6513 199.134C52.3404 198.842 47.0152 198.955 41.7213 199.472C40.5891 199.58 38.8463 200.149 37.7506 199.926C36.5688 199.685 37.0201 199.548 37.4062 198.423C37.5216 198.089 37.6191 197.748 37.6984 197.403H191.024C191.283 198.157 191.477 198.932 191.605 199.719Z" fill="black"/>
<path d="M33.8916 197.666H193.333C194.712 197.666 196.034 198.216 197.009 199.196C197.984 200.176 198.532 201.505 198.532 202.891V203.566H28.6924V202.891C28.6924 201.505 29.2402 200.176 30.2152 199.196C31.1902 198.216 32.5127 197.666 33.8916 197.666Z" fill="#D4D5E0"/>
<path d="M73.1276 60.2387L73.0229 60.2071C72.7988 60.1395 72.5626 60.2672 72.4954 60.4925L71.979 62.2208C71.9118 62.446 72.0389 62.6834 72.263 62.751L72.3677 62.7826C72.5917 62.8503 72.8279 62.7225 72.8952 62.4973L73.4115 60.769C73.4788 60.5437 73.3517 60.3063 73.1276 60.2387Z" fill="#CD15F3"/>
<path d="M59.2199 98.7313L59.1152 98.6997C58.8911 98.6321 58.6549 98.7598 58.5876 98.9851L58.0713 100.713C58.004 100.939 58.1311 101.176 58.3552 101.244L58.4599 101.275C58.684 101.343 58.9202 101.215 58.9875 100.99L59.5038 99.2616C59.5711 99.0364 59.444 98.7989 59.2199 98.7313Z" fill="#CD15F3"/>
<path d="M44.3249 143.303L44.2202 143.271C43.9961 143.204 43.7599 143.331 43.6926 143.557L43.1763 145.285C43.109 145.51 43.2361 145.748 43.4602 145.815L43.5649 145.847C43.789 145.914 44.0252 145.787 44.0925 145.561L44.6088 143.833C44.6761 143.608 44.549 143.37 44.3249 143.303Z" fill="#CD15F3"/>
<path d="M81.5685 146.263L81.4638 146.232C81.2397 146.164 81.0036 146.292 80.9363 146.517L80.42 148.245C80.3527 148.471 80.4798 148.708 80.7039 148.776L80.8086 148.807C81.0326 148.875 81.2688 148.747 81.3361 148.522L81.8524 146.794C81.9197 146.568 81.7926 146.331 81.5685 146.263Z" fill="#CD15F3"/>
<path d="M103.681 144.595L103.577 144.564C103.353 144.496 103.116 144.624 103.049 144.849L102.533 146.577C102.465 146.802 102.593 147.04 102.817 147.108L102.921 147.139C103.145 147.207 103.382 147.079 103.449 146.854L103.965 145.125C104.033 144.9 103.905 144.663 103.681 144.595Z" fill="#CD15F3"/>
<path d="M134.853 147.977L134.748 147.945C134.524 147.877 134.288 148.005 134.22 148.23L133.704 149.959C133.637 150.184 133.764 150.421 133.988 150.489L134.093 150.521C134.317 150.588 134.553 150.46 134.62 150.235L135.137 148.507C135.204 148.282 135.077 148.044 134.853 147.977Z" fill="#CD15F3"/>
<path d="M156.172 143.035L156.067 143.004C155.843 142.936 155.607 143.064 155.54 143.289L155.023 145.017C154.956 145.243 155.083 145.48 155.307 145.548L155.412 145.579C155.636 145.647 155.872 145.519 155.94 145.294L156.456 143.565C156.523 143.34 156.396 143.103 156.172 143.035Z" fill="#CD15F3"/>
<path d="M62.5397 145.144L62.435 145.113C62.2109 145.045 61.9748 145.173 61.9075 145.398L61.3912 147.126C61.3239 147.352 61.451 147.589 61.6751 147.657L61.7798 147.688C62.0038 147.756 62.24 147.628 62.3073 147.403L62.8236 145.675C62.8909 145.449 62.7638 145.212 62.5397 145.144Z" fill="#CD15F3"/>
<path d="M107.74 149.634L107.635 149.603C107.411 149.535 107.175 149.663 107.108 149.888L106.591 151.617C106.524 151.842 106.651 152.079 106.875 152.147L106.98 152.178C107.204 152.246 107.44 152.118 107.508 151.893L108.024 150.165C108.091 149.94 107.964 149.702 107.74 149.634Z" fill="#CD15F3"/>
<path d="M126.391 144.595L126.286 144.564C126.062 144.496 125.826 144.624 125.759 144.849L125.242 146.577C125.175 146.802 125.302 147.04 125.526 147.108L125.631 147.139C125.855 147.207 126.091 147.079 126.158 146.854L126.675 145.125C126.742 144.9 126.615 144.663 126.391 144.595Z" fill="#CD15F3"/>
<path d="M165.781 143.035L165.677 143.004C165.453 142.936 165.216 143.064 165.149 143.289L164.633 145.017C164.566 145.243 164.693 145.48 164.917 145.548L165.021 145.579C165.246 145.647 165.482 145.519 165.549 145.294L166.065 143.565C166.133 143.34 166.006 143.103 165.781 143.035Z" fill="#CD15F3"/>
<path d="M120.558 60.134L120.493 60.2225C120.355 60.412 120.395 60.6785 120.583 60.8178L122.03 61.8868C122.218 62.0261 122.484 61.9854 122.622 61.796L122.687 61.7074C122.826 61.518 122.785 61.2514 122.597 61.1121L121.15 60.0432C120.962 59.9039 120.697 59.9445 120.558 60.134Z" fill="#CD15F3"/>
<path d="M108.943 59.2617L108.878 59.3502C108.74 59.5397 108.78 59.8062 108.969 59.9455L110.415 61.0145C110.604 61.1538 110.869 61.1131 111.007 60.9237L111.072 60.8351C111.211 60.6457 111.17 60.3791 110.982 60.2398L109.535 59.1709C109.347 59.0316 109.082 59.0722 108.943 59.2617Z" fill="#CD15F3"/>
<path d="M90.0848 59.2617L90.02 59.3502C89.8814 59.5397 89.9219 59.8062 90.1104 59.9455L91.5568 61.0145C91.7453 61.1538 92.0105 61.1131 92.1491 60.9237L92.2138 60.8352C92.3524 60.6457 92.312 60.3792 92.1235 60.2399L90.677 59.1709C90.4885 59.0316 90.2234 59.0722 90.0848 59.2617Z" fill="#CD15F3"/>
<path d="M64.9632 97.8641L64.8984 97.9526C64.7598 98.1421 64.8003 98.4086 64.9888 98.5479L66.4352 99.6169C66.6237 99.7562 66.8889 99.7155 67.0275 99.5261L67.0922 99.4375C67.2308 99.2481 67.1904 98.9815 67.0019 98.8422L65.5554 97.7733C65.3669 97.6339 65.1018 97.6746 64.9632 97.8641Z" fill="#CD15F3"/>
<path d="M66.3953 101.764L66.3305 101.853C66.1919 102.042 66.2324 102.309 66.4209 102.448L67.8673 103.517C68.0558 103.656 68.321 103.615 68.4596 103.426L68.5244 103.337C68.663 103.148 68.6225 102.881 68.434 102.742L66.9876 101.673C66.7991 101.534 66.5339 101.575 66.3953 101.764Z" fill="#CD15F3"/>
<path d="M97.3963 98.1738L97.3315 98.2623C97.1929 98.4518 97.2334 98.7183 97.4219 98.8576L98.8683 99.9266C99.0568 100.066 99.322 100.025 99.4606 99.8358L99.5253 99.7472C99.6639 99.5578 99.6235 99.2913 99.435 99.1519L97.9886 98.083C97.8001 97.9437 97.5349 97.9843 97.3963 98.1738Z" fill="#CD15F3"/>
<path d="M85.0994 148.927L85.0347 149.015C84.8961 149.205 84.9365 149.471 85.125 149.611L86.5715 150.68C86.76 150.819 87.0251 150.778 87.1637 150.589L87.2285 150.5C87.3671 150.311 87.3266 150.044 87.1381 149.905L85.6917 148.836C85.5032 148.697 85.238 148.737 85.0994 148.927Z" fill="#CD15F3"/>
<path d="M130.973 100.184L130.908 100.273C130.77 100.462 130.81 100.729 130.999 100.868L132.445 101.937C132.633 102.077 132.899 102.036 133.037 101.846L133.102 101.758C133.241 101.568 133.2 101.302 133.012 101.163L131.565 100.094C131.377 99.9543 131.112 99.995 130.973 100.184Z" fill="#CD15F3"/>
<path d="M144.782 102.026L144.717 102.115C144.579 102.304 144.619 102.571 144.808 102.71L146.254 103.779C146.443 103.918 146.708 103.878 146.846 103.688L146.911 103.6C147.05 103.41 147.009 103.144 146.821 103.004L145.374 101.935C145.186 101.796 144.921 101.837 144.782 102.026Z" fill="#CD15F3"/>
<path d="M140.603 143.46L140.539 143.549C140.4 143.738 140.44 144.005 140.629 144.144L142.075 145.213C142.264 145.353 142.529 145.312 142.668 145.122L142.732 145.034C142.871 144.844 142.831 144.578 142.642 144.439L141.196 143.37C141.007 143.23 140.742 143.271 140.603 143.46Z" fill="#CD15F3"/>
<path d="M169.063 148.392L168.998 148.481C168.859 148.67 168.9 148.937 169.088 149.076L170.535 150.145C170.723 150.285 170.989 150.244 171.127 150.054L171.192 149.966C171.33 149.776 171.29 149.51 171.102 149.371L169.655 148.302C169.467 148.162 169.201 148.203 169.063 148.392Z" fill="#CD15F3"/>
<path d="M72.5389 145.57L72.4741 145.658C72.3355 145.848 72.376 146.114 72.5645 146.253L74.0109 147.322C74.1994 147.462 74.4646 147.421 74.6032 147.231L74.6679 147.143C74.8065 146.953 74.7661 146.687 74.5776 146.548L73.1311 145.479C72.9426 145.339 72.6775 145.38 72.5389 145.57Z" fill="#CD15F3"/>
<path d="M51.8162 143.728L51.7514 143.817C51.6128 144.006 51.6533 144.272 51.8418 144.412L53.2882 145.481C53.4767 145.62 53.7419 145.579 53.8805 145.39L53.9453 145.301C54.0839 145.112 54.0434 144.845 53.8549 144.706L52.4085 143.637C52.22 143.498 51.9548 143.539 51.8162 143.728Z" fill="#CD15F3"/>
<path d="M92.9388 146.951L92.874 147.039C92.7354 147.229 92.7759 147.495 92.9644 147.635L94.4108 148.704C94.5993 148.843 94.8645 148.802 95.0031 148.613L95.0678 148.524C95.2064 148.335 95.166 148.068 94.9775 147.929L93.531 146.86C93.3425 146.721 93.0774 146.761 92.9388 146.951Z" fill="#CD15F3"/>
<path d="M115.127 145.57L115.062 145.658C114.923 145.848 114.964 146.114 115.152 146.253L116.599 147.322C116.787 147.462 117.052 147.421 117.191 147.231L117.256 147.143C117.394 146.953 117.354 146.687 117.165 146.548L115.719 145.479C115.531 145.339 115.265 145.38 115.127 145.57Z" fill="#CD15F3"/>
<path d="M145.246 61.4243L145.183 61.3347C145.048 61.1428 144.783 61.0975 144.592 61.2335L143.127 62.2768C142.937 62.4128 142.892 62.6786 143.027 62.8704L143.09 62.9601C143.225 63.152 143.49 63.1973 143.681 63.0613L145.145 62.018C145.336 61.882 145.381 61.6162 145.246 61.4243Z" fill="#CD15F3"/>
<path d="M120.773 65.0431L120.71 64.9534C120.575 64.7615 120.311 64.7162 120.12 64.8522L118.655 65.8956C118.464 66.0315 118.419 66.2973 118.554 66.4892L118.617 66.5788C118.753 66.7707 119.017 66.816 119.208 66.68L120.673 65.6367C120.864 65.5007 120.909 65.2349 120.773 65.0431Z" fill="#CD15F3"/>
<path d="M80.3013 100.662L80.2381 100.573C80.1028 100.381 79.8384 100.336 79.6475 100.472L78.1827 101.515C77.9918 101.651 77.9467 101.917 78.0819 102.108L78.1451 102.198C78.2804 102.39 78.5448 102.435 78.7357 102.299L80.2006 101.256C80.3915 101.12 80.4366 100.854 80.3013 100.662Z" fill="#CD15F3"/>
<path d="M92.5381 101.872L92.4749 101.782C92.3396 101.59 92.0752 101.545 91.8843 101.681L90.4195 102.724C90.2286 102.86 90.1835 103.126 90.3188 103.318L90.382 103.408C90.5172 103.6 90.7817 103.645 90.9726 103.509L92.4374 102.466C92.6283 102.33 92.6734 102.064 92.5381 101.872Z" fill="#CD15F3"/>
<path d="M116.193 101.872L116.13 101.782C115.994 101.59 115.73 101.545 115.539 101.681L114.074 102.724C113.883 102.86 113.838 103.126 113.974 103.318L114.037 103.408C114.172 103.6 114.436 103.645 114.627 103.509L116.092 102.466C116.283 102.33 116.328 102.064 116.193 101.872Z" fill="#CD15F3"/>
<path d="M123.588 99.3497L123.525 99.2601C123.39 99.0682 123.126 99.0229 122.935 99.1589L121.47 100.202C121.279 100.338 121.234 100.604 121.369 100.796L121.432 100.886C121.568 101.077 121.832 101.123 122.023 100.987L123.488 99.9434C123.679 99.8074 123.724 99.5416 123.588 99.3497Z" fill="#CD15F3"/>
<path d="M141.091 100.292L141.028 100.203C140.893 100.011 140.628 99.9655 140.438 100.102L138.973 101.145C138.782 101.281 138.737 101.547 138.872 101.738L138.935 101.828C139.07 102.02 139.335 102.065 139.526 101.929L140.991 100.886C141.182 100.75 141.227 100.484 141.091 100.292Z" fill="#CD15F3"/>
<path d="M153.863 98.2817L153.8 98.1921C153.665 98.0002 153.4 97.9549 153.21 98.0908L151.745 99.1342C151.554 99.2702 151.509 99.5359 151.644 99.7278L151.707 99.8175C151.842 100.009 152.107 100.055 152.298 99.9187L153.763 98.8753C153.954 98.7394 153.999 98.4736 153.863 98.2817Z" fill="#CD15F3"/>
<path d="M171.205 99.3497L171.141 99.2601C171.006 99.0682 170.742 99.0229 170.551 99.1589L169.086 100.202C168.895 100.338 168.85 100.604 168.985 100.796L169.048 100.886C169.184 101.077 169.448 101.123 169.639 100.987L171.104 99.9434C171.295 99.8074 171.34 99.5416 171.205 99.3497Z" fill="#CD15F3"/>
<path d="M117.312 58.2872L117.208 58.2556C116.983 58.188 116.747 58.3158 116.68 58.541L116.164 60.2693C116.096 60.4945 116.223 60.732 116.448 60.7996L116.552 60.8312C116.776 60.8988 117.013 60.7711 117.08 60.5458L117.596 58.8175C117.663 58.5923 117.536 58.3549 117.312 58.2872Z" fill="#CD15F3"/>
<path d="M131.655 57.6475L131.55 57.6159C131.326 57.5482 131.089 57.676 131.022 57.9012L130.506 59.6295C130.439 59.8548 130.566 60.0922 130.79 60.1598L130.895 60.1914C131.119 60.2591 131.355 60.1313 131.422 59.9061L131.938 58.1777C132.006 57.9525 131.879 57.7151 131.655 57.6475Z" fill="#CD15F3"/>
<path d="M111.965 63.476L111.86 63.4444C111.636 63.3768 111.4 63.5046 111.332 63.7298L110.816 65.4581C110.749 65.6834 110.876 65.9208 111.1 65.9884L111.205 66.02C111.429 66.0876 111.665 65.9599 111.732 65.7346L112.248 64.0063C112.316 63.7811 112.189 63.5437 111.965 63.476Z" fill="#CD15F3"/>
<path d="M83.9113 64.5099L83.8066 64.4783C83.5825 64.4107 83.3463 64.5385 83.279 64.7637L82.7627 66.492C82.6954 66.7172 82.8226 66.9547 83.0466 67.0223L83.1513 67.0539C83.3754 67.1215 83.6116 66.9938 83.6789 66.7685L84.1952 65.0402C84.2625 64.815 84.1354 64.5776 83.9113 64.5099Z" fill="#CD15F3"/>
<path d="M133.855 62.1836L133.75 62.152C133.526 62.0844 133.29 62.2121 133.222 62.4374L132.706 64.1657C132.639 64.3909 132.766 64.6283 132.99 64.696L133.095 64.7276C133.319 64.7952 133.555 64.6674 133.622 64.4422L134.139 62.7139C134.206 62.4887 134.079 62.2512 133.855 62.1836Z" fill="#CD15F3"/>
<path d="M81.5685 58.2872L81.4638 58.2556C81.2397 58.188 81.0036 58.3158 80.9363 58.541L80.42 60.2693C80.3527 60.4945 80.4798 60.7319 80.7039 60.7996L80.8086 60.8312C81.0326 60.8988 81.2688 60.771 81.3361 60.5458L81.8524 58.8175C81.9197 58.5923 81.7926 58.3549 81.5685 58.2872Z" fill="#CD15F3"/>
<path d="M96.3039 60.8912L96.1992 60.8596C95.9751 60.792 95.7389 60.9197 95.6716 61.145L95.1553 62.8733C95.088 63.0985 95.2151 63.3359 95.4392 63.4035L95.5439 63.4351C95.768 63.5028 96.0042 63.375 96.0715 63.1498L96.5878 61.4215C96.6551 61.1962 96.528 60.9588 96.3039 60.8912Z" fill="#CD15F3"/>
<path d="M87.3029 98.7313L87.1982 98.6997C86.9741 98.6321 86.7379 98.7599 86.6706 98.9851L86.1543 100.713C86.087 100.939 86.2142 101.176 86.4382 101.244L86.5429 101.275C86.767 101.343 87.0032 101.215 87.0705 100.99L87.5868 99.2616C87.6541 99.0364 87.527 98.799 87.3029 98.7313Z" fill="#CD15F3"/>
<path d="M109.319 98.731L109.214 98.6994C108.99 98.6318 108.754 98.7596 108.686 98.9848L108.17 100.713C108.103 100.938 108.23 101.176 108.454 101.243L108.559 101.275C108.783 101.343 109.019 101.215 109.086 100.99L109.602 99.2613C109.67 99.0361 109.543 98.7987 109.319 98.731Z" fill="#CD15F3"/>
<path d="M160.432 99.7592L160.328 99.7277C160.104 99.66 159.867 99.7878 159.8 100.013L159.284 101.741C159.216 101.967 159.344 102.204 159.568 102.272L159.672 102.303C159.896 102.371 160.133 102.243 160.2 102.018L160.716 100.29C160.784 100.064 160.656 99.8269 160.432 99.7592Z" fill="#CD15F3"/>
<path d="M165.783 99.7589L165.678 99.7273C165.454 99.6597 165.218 99.7874 165.151 100.013L164.634 101.741C164.567 101.966 164.694 102.204 164.918 102.271L165.023 102.303C165.247 102.37 165.483 102.243 165.551 102.017L166.067 100.289C166.134 100.064 166.007 99.8265 165.783 99.7589Z" fill="#CD15F3"/>
<path d="M102.187 64.5099L102.082 64.4783C101.858 64.4107 101.622 64.5385 101.554 64.7637L101.038 66.492C100.971 66.7173 101.098 66.9547 101.322 67.0223L101.427 67.0539C101.651 67.1215 101.887 66.9938 101.954 66.7685L102.471 65.0402C102.538 64.815 102.411 64.5776 102.187 64.5099Z" fill="#CD15F3"/>
<path d="M128.558 144.336L127.935 143.573C129.162 142.56 129.221 136.297 128.606 132.9C128.18 130.544 128.116 128.523 128.408 126.723C128.874 123.856 130.241 121.734 132.469 120.415C137.093 117.678 139.865 110.17 139.892 110.094L140.815 110.433C140.699 110.755 137.897 118.348 132.968 121.266C129.692 123.206 128.549 127.06 129.573 132.724C130.056 135.392 130.463 142.765 128.558 144.336Z" fill="#D4D5E0"/>
<path d="M154.223 106.398C157.237 98.9643 154.649 90.8779 148.443 88.3362C142.237 85.7944 134.763 89.7597 131.749 97.193C128.823 104.41 131.178 112.243 136.998 115.018C136.607 115.738 136.018 116.33 135.3 116.721C134.04 117.313 138.136 117.882 138.136 117.882C138.142 117.106 138.272 116.336 138.523 115.602C144.513 117.367 151.369 113.438 154.223 106.398Z" fill="#CD15F3"/>
<path opacity="0.2" d="M132.945 104.093C133.084 100.884 135.012 98.3373 137.318 98.2238C137.218 98.2101 137.118 98.2006 137.016 98.1961C134.578 98.0898 132.485 100.718 132.34 104.067C132.2 107.318 133.949 110.053 136.282 110.307C136.24 110.55 132.805 107.339 132.945 104.093Z" fill="white"/>
<path d="M166.102 194.651L165.478 193.887C166.706 192.874 166.764 186.611 166.15 183.214C165.724 180.858 165.659 178.837 165.952 177.037C166.418 174.171 167.784 172.048 170.013 170.729C174.636 167.992 177.408 160.484 177.436 160.408L178.359 160.747C178.242 161.069 175.441 168.662 170.511 171.58C167.235 173.52 166.093 177.375 167.117 183.038C167.6 185.706 168.006 193.079 166.102 194.651Z" fill="#D4D5E0"/>
<path d="M191.766 156.712C194.78 149.278 192.192 141.192 185.986 138.65C179.78 136.109 172.306 140.074 169.292 147.507C166.366 154.724 168.721 162.557 174.541 165.333C174.15 166.053 173.561 166.644 172.843 167.035C171.583 167.627 175.679 168.197 175.679 168.197C175.685 167.42 175.815 166.65 176.066 165.916C182.056 167.681 188.912 163.752 191.766 156.712Z" fill="#CD15F3"/>
<path opacity="0.2" d="M170.489 154.408C170.627 151.199 172.555 148.651 174.861 148.538C174.762 148.524 174.661 148.515 174.559 148.51C172.122 148.404 170.028 151.033 169.884 154.381C169.744 157.633 171.492 160.367 173.825 160.621C173.784 160.864 170.349 157.654 170.489 154.408Z" fill="white"/>
<path d="M108.718 97.397L108.095 96.6335C109.323 95.6202 109.381 89.3572 108.767 85.9607C108.34 83.6043 108.276 81.5838 108.568 79.7834C109.034 76.9169 110.401 74.7945 112.629 73.4752C117.253 70.7382 120.025 63.2301 120.052 63.1546L120.976 63.4934C120.859 63.8152 118.057 71.4085 113.128 74.3265C109.852 76.2661 108.71 80.121 109.734 85.7841C110.216 88.4527 110.623 95.8255 108.718 97.397Z" fill="#D4D5E0"/>
<path d="M134.383 59.4581C137.396 52.0248 134.808 43.9385 128.602 41.3967C122.396 38.8549 114.922 42.8203 111.909 50.2535C108.983 57.4708 111.338 65.3032 117.158 68.0789C116.767 68.7989 116.177 69.3901 115.46 69.7815C114.2 70.3731 118.296 70.9429 118.296 70.9429C118.302 70.1668 118.432 69.3967 118.683 68.6625C124.673 70.4271 131.529 66.4988 134.383 59.4581Z" fill="#CD15F3"/>
<path opacity="0.2" d="M113.106 57.154C113.244 53.945 115.172 51.3978 117.478 51.2843C117.378 51.2707 117.278 51.2611 117.176 51.2567C114.738 51.1504 112.645 53.7789 112.501 57.1277C112.36 60.3791 114.109 63.1137 116.442 63.3672C116.4 63.6105 112.966 60.4 113.106 57.154Z" fill="white"/>
</svg>
